<svg width="2451" height="691" viewBox="0 0 2451 691" fill="none" xmlns="http://www.w3.org/2000/svg">
<path d="M1920.29 143.41C1875.8 91.6394 1809.86 35.4465 1732.54 46.3755C1653.99 57.4625 1611.42 132.355 1582.57 193.886C1555.18 252.321 1536.97 314.895 1528.71 378.163C1521.04 436.788 1521.14 498.824 1541.23 555.428C1558.47 604.008 1593.05 646.208 1646.02 664.086C1680.01 675.584 1716.84 677.826 1752.2 671.635C1758.18 670.593 1771.03 668.098 1777.02 667.055C1789.42 664.907 1796.17 662.254 1807.56 661.022C1807.56 661.022 1875.56 687.871 1941.41 658.306C1976.34 642.607 1995.88 629.372 2015.71 598.954C2063.6 525.452 2068.12 423.458 2037.21 342.817C2010.45 273.01 1970.07 201.372 1920.29 143.41Z" fill="#BDBDBD"/>
<path d="M1802.2 609.395C1843.46 583.869 1840.34 414.062 1782.71 456.834C1755.93 476.676 1759.97 526.807 1779.6 574.375C1780.81 577.463 1793.6 600.361 1802.2 609.395V609.395ZM1866.13 637.679C2067.28 607.588 2017.91 339.391 1931.15 210.287C1903.59 169.256 1871.07 133.284 1834.75 100.104C1807.96 75.6302 1772.74 49.5791 1733.49 52.6014C1702.28 54.9995 1678.03 75.5315 1658.66 99.5785C1647.38 113.606 1637.75 128.783 1629.37 142.252C1584.15 215.017 1560.41 304.077 1551.88 388.044C1545.32 452.597 1546.24 527.53 1582.86 584.592C1620.43 643.133 1712.39 647.174 1777.72 631.799C1769.35 619.316 1754.85 590.505 1753.12 586.333C1733.64 538.863 1715.95 464.719 1767.68 429.601C1794.52 411.368 1831.74 418.398 1847.52 447.373C1891.63 528.285 1832.33 630.058 1832.33 630.058C1834.92 633.507 1848.34 639.65 1866.13 637.679V637.679ZM2028.17 329.076C2059.1 412.354 2054.58 517.642 2006.69 593.528C1986.85 624.933 1967.32 638.599 1932.39 654.795C1866.54 685.314 1798.54 657.587 1798.54 657.587C1787.14 658.901 1780.39 661.628 1767.99 663.829C1762 664.913 1749.16 667.475 1743.18 668.559C1707.82 674.965 1670.99 672.633 1636.99 660.774C1584.02 642.311 1549.45 598.751 1532.2 548.587C1512.11 490.178 1512.01 426.085 1519.68 365.607C1527.95 300.299 1546.14 235.648 1573.55 175.333C1602.4 111.832 1644.96 34.5004 1723.5 23.0354C1800.82 11.7675 1866.78 69.7825 1911.27 123.231C1961.04 183.053 2001.42 257.001 2028.17 329.076" fill="#BDBDBD"/>
<path d="M1931.15 210.272C2017.91 339.411 2067.29 607.605 1866.13 637.68C1848.34 639.637 1834.92 633.504 1832.33 630.047C1832.33 630.047 1891.63 528.275 1847.52 447.38C1831.74 418.414 1794.52 411.368 1767.68 429.602C1715.95 464.701 1733.64 538.876 1753.12 586.337C1754.84 590.512 1769.35 619.315 1777.72 631.808C1712.39 647.172 1620.43 643.159 1582.86 584.608C1546.24 527.525 1545.32 452.599 1551.88 388.046C1560.41 304.084 1584.15 215.034 1629.37 142.261C1637.75 128.789 1647.38 113.589 1658.65 99.5955C1678.03 75.5552 1702.28 55.0054 1733.48 52.5915C1772.74 49.5906 1807.96 75.6207 1834.74 100.118C1871.07 133.291 1903.58 169.237 1931.15 210.272" fill="url(#paint0_linear_7_52)"/>
<path d="M1782.71 456.818C1840.34 414.069 1843.46 583.88 1802.2 609.402C1793.6 600.348 1780.81 577.469 1779.61 574.37C1759.97 526.821 1755.93 476.689 1782.71 456.818" fill="white"/>
<path d="M2395.26 426.554C2394.69 425.712 2408.2 405.743 2409.45 403.352C2413.64 395.31 2417.26 386.997 2420.38 378.52C2426.72 361.323 2435.05 341.055 2437.31 322.988C2448.38 234.201 2411.57 146.854 2337.78 90.5064C2253.19 25.8996 2131.6 -4.44751 2028.27 33.8873C2015.3 38.6961 2004.06 46.928 1994.74 56.763C1959.55 94.0926 1945.39 158.401 1936.35 206.435C1926.56 258.653 1921.18 304.16 1918.71 357.301C1918.57 359.665 1918.49 362.056 1918.37 364.42C1915.48 438.508 1928.99 522.731 1974.04 584.947C2000.77 621.869 2038.01 667.43 2090.8 653.439C2123.13 645.831 2159.07 616.517 2171.81 586.55C2171.81 586.55 2189.91 605.432 2201.68 614.425C2235.67 640.805 2276.39 660.122 2320.67 661.942C2348.2 663.056 2380.34 657.161 2405.23 645.669C2426.04 636.024 2441.81 619.723 2447.05 597.852C2460.19 542.89 2431.76 482.494 2402.71 437.15L2395.26 426.554" fill="#BDBDBD"/>
<path d="M2157.7 512.089C2162.3 498.2 2158.5 442.179 2140.46 461.19C2133.52 468.505 2142.26 503.624 2157.7 512.089ZM2295.75 396.102C2297.47 406.649 2333.61 413.908 2347.98 404.704C2339.01 397.389 2292.75 377.474 2295.75 396.102ZM2408.13 594.217C2423.32 580.93 2425.29 561.152 2423.27 542.579C2420.9 520.965 2418.56 509.568 2410.3 489.352C2405.48 477.572 2395.09 461.053 2385.98 448.178C2382.24 442.891 2371.33 428.646 2371.33 428.646C2352.26 436.481 2324.48 439.193 2305.49 433.495C2216.61 402.074 2271.83 319.59 2372.67 388.706C2521.66 190.235 2237.71 -31.7126 2031.99 43.9775C1989.59 59.5647 1976.57 138.323 1960.26 204.863C1942.33 282.854 1935.25 397.746 1955.95 475.079C1983.71 562.85 2076.61 675.44 2149.82 548.194C2150.11 547.701 2142.46 539.127 2141.63 538.031C2138.83 534.251 2136.17 530.361 2133.75 526.361C2125.18 512.39 2119.01 496.502 2117.19 480.202C2115.47 464.724 2116.5 445.22 2128.35 433.33C2140.4 421.25 2158.22 429.167 2168.12 439.659C2179.63 451.849 2182.43 468.861 2184 484.667C2185.8 502.967 2186.91 521.266 2183.8 539.483C2183.6 540.661 2215.24 578.163 2240.42 591.121C2256.49 599.366 2271.4 606.626 2289.3 610.79C2308.23 615.2 2327.99 617.063 2347.46 615.748C2368.7 614.296 2392.03 608.297 2408.13 594.217V594.217ZM2402.68 420.154C2431.75 465.519 2460.19 525.895 2447.02 580.876C2441.8 602.736 2426.01 619.008 2405.22 628.651C2380.32 640.184 2348.17 646.046 2320.65 644.95C2276.37 643.142 2235.65 623.802 2201.67 597.421C2189.88 588.436 2171.81 569.562 2171.81 569.562C2159.04 599.504 2123.13 628.843 2090.78 636.431C2038.01 650.429 2000.75 604.845 1974.03 567.973C1928.97 505.761 1915.47 421.524 1918.38 347.395C1918.46 345.039 1918.58 342.683 1918.66 340.327C1921.18 287.155 1926.54 241.654 1936.34 189.44C1945.39 141.418 1959.52 77.097 1994.73 39.7862C2004.03 29.9243 2015.28 21.6788 2028.25 16.8848C2131.58 -21.4396 2253.18 8.8855 2337.75 73.5083C2411.56 129.858 2448.36 217.218 2437.29 305.975C2435.03 324.055 2426.69 344.327 2420.38 361.503C2417.24 369.995 2413.62 378.323 2409.42 386.377C2408.19 388.76 2394.69 408.731 2395.26 409.552L2402.68 420.154" fill="#BDBDBD"/>
<path d="M2423.16 536.578C2425.18 555.151 2423.21 574.929 2408.02 588.216C2391.92 602.296 2368.59 608.295 2347.35 609.747C2327.88 611.062 2308.12 609.2 2289.19 604.789C2271.29 600.625 2256.38 593.365 2240.31 585.12C2215.12 572.162 2183.49 534.66 2183.69 533.482C2186.8 515.265 2185.69 496.966 2183.89 478.666C2182.32 462.86 2179.52 445.848 2168.01 433.658C2158.1 423.166 2140.29 415.249 2128.24 427.33C2116.39 439.219 2115.36 458.723 2117.07 474.201C2118.9 490.501 2125.07 506.389 2133.63 520.36C2136.06 524.36 2138.72 528.25 2141.52 532.03C2142.34 533.126 2150 541.7 2149.71 542.193C2076.5 669.439 1983.59 556.849 1955.84 469.078C1935.14 391.745 1942.22 276.853 1960.15 198.862C1976.45 132.322 1989.47 53.5638 2031.87 37.9766C2237.59 -37.7135 2521.55 184.234 2372.56 382.705C2271.71 313.589 2216.49 396.073 2305.38 427.494C2324.36 433.192 2352.15 430.48 2371.22 422.645C2371.22 422.645 2382.13 436.89 2385.87 442.177C2394.97 455.052 2405.37 471.571 2410.19 483.351C2418.44 503.567 2420.79 514.964 2423.16 536.578" fill="url(#paint1_linear_7_52)"/>
<path d="M2347.87 398.7C2333.5 407.909 2297.36 400.621 2295.66 390.097C2292.65 371.47 2338.91 391.386 2347.87 398.7Z" fill="white"/>
<path d="M1558.56 429.778C1582.6 374.306 1569.56 337.578 1546.25 311.991C1539.36 304.421 1540.94 300.586 1545.88 293.479C1718.72 44.5826 1256.15 -30.1621 1161.69 113.608C1138.61 148.716 1128.16 182.733 1118.44 223.064C1107.13 269.941 1100.99 318.074 1100.11 366.174C1099.23 414.042 1103.53 462.373 1116.04 508.787C1127.34 550.705 1145.71 591.797 1175.17 624.987C1196.76 649.318 1224.61 669.219 1255.79 680.724C1266.92 684.823 1283.37 687.699 1295.22 688.988C1328.61 692.625 1367.09 689.815 1399.49 686.476C1430.43 683.269 1452.15 679.269 1484.7 672.294C1602.84 646.938 1647.14 504.787 1558.56 429.778Z" fill="#BDBDBD"/>
<path d="M1524.86 463.54C1558.88 493.662 1570.82 532.352 1558.35 573.823C1545.9 615.228 1497.08 637.042 1456.5 645.84C1425.28 652.643 1402.19 655.946 1370.51 660.165C1343.61 663.73 1311.07 663.174 1273.19 657.417C1222.94 649.797 1190.31 613.69 1167 571.893C1132 509.131 1117.81 434.105 1116.16 362.644C1115.96 353.813 1115.95 345.016 1116.12 336.283C1116.95 292.785 1124.72 259.262 1133.53 216.745C1140.84 181.423 1157.54 143.125 1183.07 115.423C1227.54 67.1829 1305.76 66.987 1364.94 74.8036C1391.13 78.2703 1410.6 83.7975 1436.07 90.6002C1459.57 96.8469 1481.88 106.364 1501.92 120.428C1527.7 138.514 1540.23 172.037 1537.5 201.537C1534.88 229.762 1520.77 253.866 1502.03 269.106C1458.95 252.099 1393.91 229.369 1347.71 246.441C1307.61 264.789 1301.19 312.114 1345.26 330.429C1425.29 363.723 1491.95 321.467 1491.95 321.467C1504.05 324.313 1529.59 374.189 1508.01 407.385C1508.01 407.385 1472.18 399.176 1437.97 396.853C1396.25 393.975 1321.46 401.367 1295.6 440.352C1282.36 460.302 1290.62 482.542 1311.11 494.054C1365.73 524.764 1464.45 489.704 1511.83 457.62C1515.59 455.102 1521.03 460.139 1524.86 463.54" fill="url(#paint2_linear_7_52)"/>
<path d="M1353.49 278.333C1353.25 301.577 1428.6 298.313 1461.35 281.497C1445.05 264.547 1353.86 242.17 1353.49 278.333ZM1475.31 426.75C1469.32 425.152 1460.58 423.487 1457.54 423.021C1451.36 422.022 1445.12 421.356 1438.87 420.923C1425.88 420.057 1411.17 419.224 1398.2 420.39C1384.86 421.555 1375.13 422.654 1362.09 425.551C1353.57 427.449 1340.84 432.577 1337.63 441.535C1335.33 447.995 1338.71 455.288 1345.29 457.885C1350.82 460.083 1359.79 461.748 1367.52 461.149C1410.1 457.952 1441.5 444.332 1475.31 426.75ZM1557.94 561.381C1570.41 519.889 1558.47 481.195 1524.45 451.092C1520.61 447.696 1515.17 442.634 1511.42 445.165C1464.04 477.266 1365.32 512.33 1310.7 481.595C1290.21 470.073 1281.95 447.862 1295.19 427.882C1321.05 388.922 1395.84 381.529 1437.56 384.393C1471.77 386.724 1507.59 394.949 1507.59 394.949C1529.18 361.716 1503.64 311.866 1491.53 309.002C1491.53 309.002 1424.88 351.26 1344.85 317.993C1300.78 299.678 1307.2 252.36 1347.3 233.978C1393.5 216.929 1458.54 239.639 1501.61 256.655C1520.35 241.404 1534.46 217.328 1537.09 189.09C1539.82 159.587 1527.28 126.054 1501.51 107.972C1481.47 93.9198 1459.16 84.3959 1435.66 78.1355C1410.19 71.3757 1390.72 65.8148 1364.53 62.3517C1305.35 54.5262 1227.13 54.726 1182.66 102.977C1157.13 130.683 1140.43 168.977 1133.11 204.308C1124.31 246.832 1116.53 280.331 1115.71 323.821C1115.53 332.545 1115.55 341.37 1115.75 350.194C1117.4 421.655 1131.59 496.68 1166.59 559.449C1189.9 601.241 1222.52 637.337 1272.78 644.963C1310.66 650.724 1343.2 651.29 1370.1 647.727C1401.77 643.498 1424.87 640.168 1456.09 633.375C1496.66 624.584 1545.49 602.772 1557.94 561.381V561.381ZM1545.87 417.593C1634.45 492.584 1590.15 634.74 1471.99 660.114C1439.46 667.107 1417.74 671.07 1386.8 674.267C1354.4 677.63 1315.92 680.427 1282.52 676.797C1270.67 675.532 1254.22 672.635 1243.09 668.539C1211.92 657.017 1184.07 637.138 1162.48 612.796C1133.02 579.629 1114.65 538.504 1103.35 496.613C1090.83 450.193 1086.54 401.842 1087.42 353.99C1088.29 305.872 1094.44 257.754 1105.74 210.868C1115.47 170.542 1125.92 136.543 1148.99 101.412C1243.46 -42.3427 1706.03 32.4152 1533.18 281.297C1528.25 288.39 1526.67 292.219 1533.56 299.778C1556.86 325.386 1569.89 362.115 1545.87 417.593" fill="#BDBDBD"/>
<path d="M1457.55 423.005C1460.59 423.492 1469.33 425.137 1475.32 426.722C1441.51 444.302 1410.11 457.951 1367.53 461.15C1359.79 461.729 1350.83 460.084 1345.3 457.89C1338.72 455.27 1335.34 447.958 1337.64 441.529C1340.85 432.572 1353.58 427.422 1362.1 425.533C1375.14 422.639 1384.87 421.542 1398.21 420.384C1411.17 419.226 1425.88 420.019 1438.88 420.902C1445.13 421.329 1451.37 422.03 1457.55 423.005Z" fill="white"/>
<path d="M1461.35 281.502C1428.61 298.289 1353.26 301.57 1353.5 278.315C1353.87 242.153 1445.06 264.526 1461.35 281.502Z" fill="white"/>
<path d="M289.925 134.416C100.752 27.6889 6.76159 312.599 11.1466 449.761C37.4137 783.598 415.997 722.453 421.087 418.995C420.514 310.415 396.61 192.41 289.925 134.416Z" fill="#BDBDBD"/>
<path d="M193.533 630.909C438.736 616.438 446.176 161.121 207.321 130.031C84.3358 134.074 50.4661 273.242 32.0229 368.187C8.30187 472.082 62.5096 633.14 193.533 630.909V630.909ZM278.925 121.387C385.597 179.413 409.513 297.418 410.086 405.998C404.997 709.458 26.4107 770.58 0.146668 436.754C-4.2389 299.593 89.7502 14.675 278.925 121.387" fill="#BDBDBD"/>
<path d="M207.32 130.025C446.181 161.115 438.731 616.425 193.532 630.91C62.5078 633.139 8.30189 472.065 32.0214 368.17C50.4639 273.244 84.3351 134.074 207.32 130.025Z" fill="url(#paint3_linear_7_52)"/>
<path d="M723.152 197.733C723.152 197.733 703.332 179.186 699.077 174.764C649.925 123.656 576.73 88.4697 502.929 103.257C421.402 119.621 400.046 333.255 413.929 400.477C425.323 486.384 424.185 712.43 558.762 688.88C598.521 676.248 629.477 652.311 644.325 613.808C823.135 766.108 922.506 649.547 936.274 459.075C940.161 364.904 944.007 270.539 911.383 180.043C870.379 33.1331 757.813 61.4647 723.152 197.733" fill="#BDBDBD"/>
<path d="M607.686 540.541C612.897 508.504 598.773 462.917 585.214 458.484C559.966 450.286 593.952 534.769 607.686 540.541ZM754.197 342.076C790.177 339.622 729.123 247.388 718.769 236.207C704.395 271.868 733.424 343.498 754.197 342.076ZM888.458 378.741C889.574 332.875 886.096 286.869 876.782 242.955C875.297 235.928 873.672 228.93 871.92 221.959C866.026 198.566 858.726 175.341 848.741 153.23C841.354 136.891 832.409 119.465 818.5 107.28C785.324 78.199 758.681 123.48 747.06 149.41C739.542 166.139 733.639 183.51 728.408 201.02C728.408 201.02 810.116 287.427 795.571 346.202C784.763 389.866 733.035 374.335 717.545 358.47C672.446 312.325 686.796 216.55 686.796 216.55C640.537 159.699 510.056 67.2415 451.159 150.024C403.005 256.756 408.701 373.973 426.8 486.422C436.872 531.228 438.084 581.444 467.622 619.364C499.106 675.602 583.025 629.29 596.207 579.213C596.207 579.213 512.32 496.375 555.136 434.17C605.164 368.257 654.434 522.166 635.294 568.674C645.477 590.924 706.964 633.109 737.908 636.622C801.43 646.66 834.629 612.895 854.222 569.12C865.561 543.775 872.472 516.673 877.247 489.544C883.585 453.548 887.549 416.186 888.458 378.741V378.741ZM888.816 167.589C921.437 258.095 917.592 352.448 913.704 446.634C899.938 637.097 800.555 753.672 621.758 601.38C606.896 639.857 575.952 663.808 536.191 676.438C401.618 699.999 402.755 473.93 391.348 388.025C377.475 320.802 398.834 107.169 480.359 90.8018C554.159 75.9963 627.355 111.212 676.506 162.319C680.751 166.753 700.585 185.294 700.585 185.294C735.243 49.0066 847.808 20.6783 888.816 167.589Z" fill="#BDBDBD"/>
<path d="M876.777 242.976C886.093 286.882 889.568 332.885 888.452 378.751C887.543 416.199 883.58 453.537 877.243 489.55C872.468 516.678 865.557 543.778 854.215 569.139C834.625 612.907 801.426 646.657 737.903 636.64C706.959 633.135 645.472 590.94 635.29 568.67C654.429 522.17 605.158 368.264 555.13 434.192C512.316 496.395 596.204 579.212 596.204 579.212C583.022 629.299 499.102 675.606 467.618 619.364C438.081 581.447 436.867 531.249 426.795 486.432C408.697 373.976 402.999 256.747 451.154 150.031C510.052 67.2416 640.534 159.717 686.794 216.566C686.794 216.566 672.441 312.326 717.541 358.495C733.03 374.335 784.758 389.872 795.567 346.215C810.113 287.434 728.405 201.029 728.405 201.029C733.637 183.533 739.539 166.147 747.055 149.396C758.678 123.483 785.322 78.1973 818.497 107.284C832.404 119.482 841.35 136.895 848.736 153.232C858.723 175.337 866.022 198.573 871.913 221.975C873.668 228.957 875.293 235.939 876.777 242.976" fill="url(#paint4_linear_7_52)"/>
<path d="M196.862 298.958C254.493 256.209 257.612 426.02 216.347 451.542C207.746 442.487 194.956 419.609 193.754 416.51C174.117 368.96 170.077 318.829 196.862 298.958" fill="#BDBDBD"/>
<defs>
<linearGradient id="paint0_linear_7_52" x1="1777.72" y1="639.463" x2="1777.72" y2="52.3545" gradientUnits="userSpaceOnUse">
<stop stop-color="white"/>
<stop offset="1" stop-color="white" stop-opacity="0"/>
</linearGradient>
<linearGradient id="paint1_linear_7_52" x1="2183.51" y1="610.161" x2="2183.51" y2="22.8012" gradientUnits="userSpaceOnUse">
<stop stop-color="white"/>
<stop offset="1" stop-color="white" stop-opacity="0"/>
</linearGradient>
<linearGradient id="paint2_linear_7_52" x1="1339.58" y1="662.397" x2="1339.58" y2="70.9995" gradientUnits="userSpaceOnUse">
<stop stop-color="white"/>
<stop offset="1" stop-color="white" stop-opacity="0"/>
</linearGradient>
<linearGradient id="paint3_linear_7_52" x1="204.319" y1="630.933" x2="204.319" y2="130.025" gradientUnits="userSpaceOnUse">
<stop stop-color="white"/>
<stop offset="1" stop-color="white" stop-opacity="0"/>
</linearGradient>
<linearGradient id="paint4_linear_7_52" x1="651.137" y1="645.095" x2="651.137" y2="97.8762" gradientUnits="userSpaceOnUse">
<stop stop-color="white"/>
<stop offset="1" stop-color="white" stop-opacity="0"/>
</linearGradient>
</defs>
</svg>
