<svg width="2300" height="660" viewBox="0 0 2300 660" fill="none" xmlns="http://www.w3.org/2000/svg">
<path d="M2199.03 197.608C2208.26 177.295 2213.46 152.055 2208.23 130.381C2181.96 18.9919 2027.52 -3.55802 1932.02 34.8615C1842.64 78.1477 1776.67 184.58 1788.83 280.371C1793.14 307.123 1804.71 345.12 1820.05 368.516C1820.05 368.516 1804.52 389.161 1796.55 411.923C1788.48 434.926 1783.47 467.723 1784.45 491.573C1788.04 577.329 1852.75 657.373 1983.5 651.599C2177.58 642.984 2358.61 487.1 2282.02 294.669C2259.68 239.081 2199.03 197.608 2199.03 197.608" fill="#BDBDBD"/>
<path d="M414.705 197.608C423.936 177.295 429.135 152.055 423.905 130.381C397.629 18.9919 243.188 -3.55802 147.694 34.8615C58.3124 78.1477 -7.66064 184.58 4.50057 280.371C8.81686 307.123 20.3793 345.12 35.7226 368.516C35.7226 368.516 20.1904 389.161 12.2195 411.923C4.15401 434.926 -0.855525 467.723 0.121153 491.573C3.71281 577.329 68.4258 657.373 199.175 651.599C393.25 642.984 574.282 487.1 497.692 294.669C475.354 239.081 414.705 197.608 414.705 197.608" fill="#BDBDBD"/>
<path d="M1914.44 401.303C1997.71 417.131 2057.81 325.8 1925.21 318.412C1894.63 319.433 1851.58 325.289 1826.51 357.335C1826.51 357.335 1855.06 390.041 1914.44 401.303ZM2119.69 199.33C2089.33 182.812 2008.32 175.273 2006.38 197.498C2002.87 238.103 2106.77 214.527 2119.69 199.33ZM2240.21 355.172C2244.12 298.169 2206.34 250.326 2155.16 212.935C2155.16 212.935 2131.93 234.018 2109.61 242.698C2062.79 260.868 1971.91 271.59 1962.93 210.562C1954.98 156.503 2022.31 145.54 2066.04 149.895C2097.34 152.989 2144.67 170.799 2144.67 170.799C2178.14 91.2105 2072.87 29.282 2003.4 34.0873C1927.43 34.4477 1858.91 70.3973 1823.91 136.38C1792.77 184.463 1782.91 236.331 1796.34 291.262C1802.31 315.739 1812.68 333.939 1812.68 333.939C1855.06 293.154 1910.9 282.582 1980.46 300.542C2066.04 322.646 2048.07 417.011 1970.91 433.379C1925.21 443.08 1877.91 433.829 1825.07 391.573L1811.42 381.241C1787.01 418.272 1777.68 481.852 1794.77 520.175C1860.1 665.866 2064.6 613.007 2162.45 527.833C2221.21 476.717 2237.74 417.701 2240.21 355.172ZM2255.77 281.951C2332.37 474.374 2151.34 630.247 1957.23 638.866C1826.51 644.663 1761.81 564.594 1758.21 478.849C1757.24 455.033 1762.22 422.207 1770.29 399.201C1778.27 376.466 1793.8 355.803 1793.8 355.803C1778.46 332.377 1766.88 294.415 1762.59 267.656C1750.45 171.85 1816.4 65.412 1905.8 22.1342C2001.28 -16.2783 2155.72 6.27659 2181.99 117.64C2187.21 139.324 2182.02 164.581 2172.78 184.884C2172.78 184.884 2233.45 226.36 2255.77 281.951Z" fill="#BDBDBD"/>
<path d="M156.353 396.532C239.619 412.36 299.721 321.029 167.121 313.641C136.538 314.662 93.497 320.518 68.4234 352.564C68.4234 352.564 96.9718 385.27 156.353 396.532ZM361.606 194.559C331.243 178.041 250.231 170.502 248.29 192.727C244.784 233.332 348.678 209.756 361.606 194.559ZM482.123 350.401C486.035 293.398 448.253 245.555 397.073 208.164C397.073 208.164 373.846 229.247 351.527 237.927C304.698 256.097 213.825 266.819 204.841 205.791C196.89 151.732 264.223 140.769 307.953 145.124C339.256 148.218 386.586 166.028 386.586 166.028C420.049 86.4396 314.777 24.511 245.316 29.3163C169.344 29.6767 100.822 65.6264 65.8253 131.609C34.6789 179.693 24.8183 231.56 38.2472 286.491C44.2261 310.968 54.5874 329.168 54.5874 329.168C96.9716 288.383 152.816 277.811 222.371 295.771C307.953 317.875 289.985 412.24 212.824 428.608C167.121 438.309 119.823 429.058 66.9836 386.802L53.3353 376.47C28.919 413.501 19.5907 477.081 36.6821 515.404C102.011 661.095 306.513 608.237 404.366 523.062C463.122 471.946 479.65 412.93 482.123 350.401ZM497.68 277.18C574.278 469.603 393.254 625.476 199.144 634.095C68.4232 639.892 3.72017 559.823 0.120335 474.078C-0.850055 450.262 4.12729 417.436 12.2034 394.43C20.1857 371.695 35.7118 351.032 35.7118 351.032C20.3734 327.606 8.79124 289.644 4.50274 262.885C-7.64279 167.079 58.3125 60.6411 147.714 17.3632C243.188 -21.0492 397.636 1.50566 423.899 112.869C429.127 134.553 423.931 159.811 414.696 180.113C414.696 180.113 475.361 221.589 497.68 277.18Z" fill="#BDBDBD"/>
<path d="M2155.17 212.939C2206.32 250.333 2244.13 298.175 2240.19 355.166C2237.76 417.706 2221.21 476.734 2162.46 527.852C2064.6 612.999 1860.07 665.888 1794.76 520.207C1777.66 481.839 1787.01 418.296 1811.4 381.256L1825.06 391.586C1877.91 433.82 1925.19 443.088 1970.9 433.378C2048.05 417.027 2066.02 322.671 1980.47 300.566C1910.89 282.592 1855.06 293.187 1812.67 333.946C1812.67 333.946 1802.3 315.736 1796.33 291.269C1782.89 236.344 1792.76 184.488 1823.89 136.38C1858.9 70.4166 1927.44 34.4688 2003.42 34.1146C2072.88 29.3038 2178.11 91.224 2144.68 170.793C2144.68 170.793 2097.33 152.996 2066.02 149.898C2022.28 145.559 1954.97 156.509 1962.91 210.578C1971.92 271.612 2062.79 260.869 2109.61 242.689C2131.94 234.012 2155.17 212.939 2155.17 212.939" fill="url(#paint0_linear_9_102)"/>
<path d="M397.078 208.168C448.234 245.562 486.04 293.404 482.103 350.395C479.673 412.935 463.123 471.963 404.368 523.081C306.516 608.228 101.982 661.117 36.675 515.436C19.5715 477.068 28.9229 413.525 53.3169 376.485L66.9751 386.815C119.824 429.049 167.104 438.317 212.816 428.607C289.966 412.256 307.931 317.901 222.383 295.795C152.8 277.821 96.9678 288.416 54.5783 329.175C54.5783 329.175 44.2115 310.965 38.2437 286.498C24.8009 231.573 34.6755 179.717 65.8063 131.609C100.813 65.6457 169.35 29.6978 245.331 29.3436C314.79 24.5329 420.026 86.4531 386.588 166.022C386.588 166.022 339.246 148.226 307.931 145.127C264.188 140.788 196.881 151.738 204.818 205.807C213.831 266.842 304.701 256.098 351.52 237.918C373.853 229.241 397.078 208.168 397.078 208.168" fill="url(#paint1_linear_9_102)"/>
<path d="M1988.87 239.646C1990.79 217.426 2071.85 224.967 2102.21 241.488C2089.28 256.684 1985.37 280.256 1988.87 239.646Z" fill="white"/>
<path d="M201.367 195.117C203.287 172.898 284.342 180.438 314.7 196.959C301.771 212.155 197.857 235.728 201.367 195.117Z" fill="url(#paint2_linear_9_102)"/>
<path d="M1907.69 360.563C2040.29 367.952 1980.19 459.284 1896.94 443.455C1837.55 432.202 1809 399.494 1809 399.494C1834.09 367.44 1877.12 361.586 1907.69 360.563" fill="white"/>
<path d="M148.01 313.649C280.611 321.037 220.516 412.37 137.258 396.541C77.8735 385.288 49.3213 352.58 49.3213 352.58C74.408 320.526 117.444 314.672 148.01 313.649" fill="url(#paint3_linear_9_102)"/>
<path d="M678.867 45.3285C643.363 45.4362 598.963 51.4678 570.532 73.4408C552.233 87.5778 545.89 109.712 538.228 130.204C529.106 154.52 521.36 179.267 513.81 204.04C501.601 244.216 495.427 283.908 494.08 323.842C492.761 362.59 496.016 401.555 502.724 441.435C511.481 493.432 527.282 547.368 558.604 591.341C575.78 615.495 601.152 635.934 629.443 647.028C655.881 657.422 687.483 658.256 709.01 637.711C733.568 614.257 745.692 579.089 753.944 547.637C762.448 515.243 766.125 481.772 767.387 448.436C774.011 448.571 780.663 448.22 787.23 447.466C795.65 446.497 802.582 445.689 810.834 443.831C819.675 441.892 829.975 438.069 838.507 435.08C850.098 431.014 861.24 425.736 871.681 419.381C882.318 412.918 892.169 405.298 901.01 396.708C905.445 392.372 909.626 387.795 913.5 383.002C917.345 378.262 920.376 372.984 924.108 368.164C972.859 305.396 969.295 215.673 936.458 146.953C892.197 54.376 772.271 45.0861 678.867 45.3285" fill="#BDBDBD"/>
<path d="M672.243 369.372C650.273 389.148 713.976 418.512 735.72 415.47C729.123 383.036 684.446 358.398 672.243 369.372ZM767.798 413.324C925.837 407.022 978.867 221.41 880.339 118.105C846.648 91.1044 801.178 82.0316 758.624 76.2729C737.843 73.4478 716.835 72.0626 695.827 72.1441C682.011 72.1713 668.194 72.8504 654.435 74.1271C629.916 76.4632 589.43 81.9775 574.707 112.7C553.218 157.656 549.594 165.697 532.437 242.978C519.809 299.86 518.875 357.828 526.718 415.062C536.995 490.062 562.674 567.914 632.379 610.833C707.379 657.012 727.962 521.871 732.209 478.789C732.973 470.939 735.295 452.793 735.72 444.888C735.72 444.888 709.814 442.226 698.602 438.586C665.108 427.721 624.678 398.764 637.844 361.305C644.271 342.969 668.138 333.027 688.466 335.906C715.589 339.709 748.347 360.001 759.106 384.476C762.928 392.082 767.798 413.324 767.798 413.324ZM936.483 144.563C969.325 213.261 972.864 303.011 924.11 365.787C920.373 370.568 917.344 375.865 913.493 380.618C909.614 385.399 905.452 389.963 901.007 394.282C892.174 402.893 882.293 410.499 871.676 416.991C861.257 423.347 850.102 428.617 838.494 432.692C830 435.68 819.666 439.483 810.832 441.439C802.565 443.286 795.657 444.1 787.22 445.078C780.68 445.839 773.998 446.165 767.401 446.029C766.127 479.359 762.446 512.853 753.953 545.232C745.686 576.688 733.568 611.865 708.993 635.308C687.475 655.871 655.907 655.029 629.435 644.652C601.151 633.542 575.811 613.115 558.597 588.939C527.284 544.961 511.485 491.04 502.737 439.048C496.027 399.171 492.771 360.191 494.073 321.455C495.432 281.497 501.604 241.81 513.835 201.635C521.367 176.861 529.124 152.115 538.212 127.803C545.913 107.321 552.227 85.1827 570.545 71.0303C598.942 49.0818 643.365 43.0515 678.868 42.9429C772.271 42.6984 892.202 51.9612 936.483 144.563" fill="#BDBDBD"/>
<path d="M852.514 120.499C951.034 223.793 897.992 409.414 739.96 415.728C739.96 415.728 735.094 394.465 731.269 386.856C720.498 362.381 687.761 342.117 660.649 338.285C640.315 335.425 616.437 345.355 610.025 363.677C596.862 401.157 637.277 430.111 670.774 440.985C681.967 444.601 707.87 447.272 707.87 447.272C707.476 455.178 705.142 473.312 704.382 481.191C700.136 524.284 679.548 659.418 604.54 613.222C534.848 570.291 509.17 492.443 498.876 417.455C491.03 360.196 491.986 302.235 504.614 245.353C521.77 168.098 525.37 160.03 546.885 115.102C561.594 84.3678 602.065 78.8363 626.59 76.5427C640.343 75.2205 654.18 74.5729 667.989 74.5189C688.998 74.4649 710.007 75.8411 730.791 78.6474C773.343 84.4219 818.821 93.5153 852.514 120.499" fill="url(#paint4_linear_9_102)"/>
<path d="M707.879 417.839C686.16 420.891 622.451 391.527 644.406 371.749C656.606 360.775 701.306 385.422 707.879 417.839Z" fill="white"/>
<path d="M1727.16 341.415C1726.05 339.916 1724.69 338.066 1724.69 336.153C1724.67 332.805 1731.74 326.396 1733.95 324.387C1740.57 318.36 1745.27 312.875 1750.83 305.924C1756.24 299.132 1759.84 294.349 1763.88 286.76C1771.77 271.804 1776.66 255.446 1778.06 238.737C1779.3 223.877 1776.67 209.114 1773.87 194.445C1764.82 146.997 1728.72 92.8837 1688.91 67.1505C1643.97 38.1329 1592.24 21.3601 1538.22 20.6904C1492.84 20.1165 1449 34.5935 1412.27 59.8803C1373.95 86.2512 1343.99 122.762 1321.94 162.462C1298.17 205.255 1283.06 252.481 1276.58 300.535C1270.04 349.004 1272.3 398.908 1285.54 446.197C1298.64 492.944 1322.86 536.821 1358.19 571.578C1410.79 623.396 1485.49 653.083 1561.07 658.376C1587.75 660.225 1614.53 659.077 1640.49 654.773C1717.22 642.05 1789.23 594.027 1797.58 514.882C1803.69 457.038 1776.5 391.542 1735.18 350.184C1732.38 347.377 1729.53 344.539 1727.16 341.415" fill="#BDBDBD"/>
<path d="M1517.59 364.335C1547.15 362.022 1589.03 355.469 1622.82 333.272C1578.88 295.076 1504.88 297.228 1451.04 313.644C1425.92 321.289 1426.25 338.347 1438.67 349.751C1451.83 361.83 1496.7 365.942 1517.59 364.335V364.335ZM1700.68 247.726C1707.17 229.961 1707.19 210.944 1705.29 192.152C1698.79 127.84 1640.99 80.2317 1580.1 61.3107C1575.11 59.7688 1570.06 58.3875 1564.97 57.1989C1515.02 45.538 1460.29 51.7702 1416.45 78.2724C1396.42 90.3831 1374.71 106.091 1358.16 123.952C1337.19 146.567 1322.5 172.492 1307.81 197.163C1284.63 236.161 1274.02 280.428 1273.11 325.208C1271.67 395.913 1294.91 467.935 1340.71 523.67C1363.25 551.071 1391.34 574.329 1423.58 590.648C1440.16 599.032 1457.74 605.585 1475.86 610.147C1495.12 614.966 1514.82 618.435 1534.34 620.587C1709.32 639.829 1798.27 475.323 1667.57 359.356C1667.34 359.163 1664.62 360.159 1664.25 360.352C1637.97 371.756 1615.53 380.14 1589.74 387.818C1563.83 395.528 1534.55 398.933 1507.4 399.318C1479.95 399.704 1452.15 395.078 1427.42 383.642C1410.97 375.996 1396.16 365.588 1390.05 348.819C1385.16 335.392 1386.53 317.435 1397.43 306.288C1409.42 293.984 1435.58 282.355 1452.23 278.629C1501.55 267.61 1532.82 266.968 1582.17 276.541C1599.12 279.817 1634.88 292.249 1648.93 302.368C1652.76 305.099 1660.49 310.014 1660.49 310.014C1677.82 291.575 1692.53 270.052 1700.68 247.726V247.726ZM1704.17 345.414C1745.49 386.79 1772.68 452.258 1766.57 510.113C1758.21 589.267 1686.21 637.292 1609.48 649.981C1583.52 654.285 1556.72 655.474 1530.05 653.611C1454.47 648.31 1379.78 618.628 1327.18 566.812C1291.86 532.054 1267.63 488.173 1254.54 441.433C1241.29 394.146 1239.03 344.226 1245.57 295.751C1252.05 247.726 1267.16 200.504 1290.92 157.715C1312.98 117.977 1342.95 81.4846 1381.25 55.1109C1417.99 29.8294 1461.84 15.3416 1507.22 15.9198C1561.22 16.5944 1612.96 33.331 1657.9 62.4031C1697.71 88.1022 1733.8 142.263 1742.86 189.678C1745.67 204.326 1748.29 219.103 1747.05 233.977C1745.65 250.681 1740.77 267.032 1732.86 281.97C1728.83 289.615 1725.24 294.37 1719.82 301.148C1714.26 308.119 1709.57 313.612 1702.94 319.619C1700.73 321.643 1693.66 328.035 1693.67 331.376C1693.68 333.304 1695.03 335.135 1696.15 336.612C1698.52 339.793 1701.37 342.62 1704.17 345.414" fill="#BDBDBD"/>
<path d="M1705.29 192.149C1707.19 210.929 1707.17 229.964 1700.68 247.722C1692.53 270.047 1677.82 291.573 1660.49 310.002C1660.49 310.002 1652.76 305.115 1648.93 302.368C1634.87 292.276 1599.12 279.82 1582.17 276.53C1532.82 266.981 1501.55 267.619 1452.23 278.638C1435.58 282.375 1409.42 293.969 1397.43 306.265C1386.53 317.444 1385.16 335.393 1390.05 348.807C1396.16 365.575 1410.97 375.987 1427.42 383.62C1452.15 395.086 1479.95 399.685 1507.39 399.302C1534.55 398.951 1563.83 395.533 1589.74 387.804C1615.53 380.139 1637.97 371.771 1664.25 360.337C1664.62 360.177 1667.34 359.155 1667.57 359.347C1798.27 475.316 1709.32 639.831 1534.33 620.572C1514.82 618.432 1495.12 614.983 1475.86 610.128C1457.73 605.593 1440.16 599.046 1423.59 590.646C1391.35 574.325 1363.25 551.074 1340.71 523.671C1294.91 467.938 1271.67 395.916 1273.11 325.205C1274.02 280.427 1284.64 236.128 1307.81 197.163C1322.49 172.475 1337.19 146.572 1358.16 123.96C1374.71 106.106 1396.42 90.3927 1416.45 78.256C1460.29 51.7471 1515.02 45.5509 1564.97 57.2084C1570.06 58.3902 1575.11 59.7636 1580.1 61.3286C1640.99 80.2362 1698.79 127.825 1705.29 192.149" fill="url(#paint5_linear_9_102)"/>
<path d="M1622.82 333.278C1589.03 355.476 1547.15 362.014 1517.59 364.325C1496.7 365.967 1451.83 361.831 1438.67 349.759C1426.24 338.326 1425.92 321.298 1451.03 313.635C1504.88 297.245 1578.88 295.086 1622.82 333.278" fill="url(#paint6_linear_9_102)"/>
<path d="M1329.15 402.645C1350.94 352.331 1339.12 319.018 1317.98 295.809C1311.73 288.943 1313.16 285.465 1317.64 279.018C1474.41 53.262 1054.85 -14.5336 969.167 115.87C948.241 147.714 938.762 178.569 929.939 215.15C919.682 257.669 914.113 301.327 913.316 344.955C912.522 388.373 916.422 432.21 927.767 474.309C938.015 512.33 954.675 549.601 981.396 579.706C1000.99 601.775 1026.24 619.826 1054.53 630.26C1064.62 633.978 1079.54 636.587 1090.29 637.757C1120.57 641.055 1155.48 638.506 1184.86 635.478C1212.93 632.569 1232.63 628.941 1262.15 622.614C1369.31 599.616 1409.49 470.681 1329.15 402.645Z" fill="#BDBDBD"/>
<path d="M1298.58 433.268C1329.44 460.59 1340.27 495.683 1328.95 533.298C1317.67 570.854 1273.38 590.64 1236.58 598.62C1208.26 604.79 1187.31 607.786 1158.58 611.613C1134.18 614.846 1104.66 614.342 1070.31 609.121C1024.72 602.209 995.135 569.459 973.992 531.548C942.242 474.621 929.373 406.57 927.88 341.753C927.695 333.743 927.682 325.763 927.84 317.843C928.588 278.389 935.641 247.982 943.627 209.418C950.259 177.38 965.406 142.643 988.561 117.517C1028.9 73.7612 1099.85 73.5834 1153.53 80.6733C1177.28 83.8177 1194.94 88.831 1218.04 95.0013C1239.36 100.667 1259.6 109.3 1277.77 122.056C1301.15 138.46 1312.52 168.867 1310.04 195.624C1307.67 221.225 1294.87 243.088 1277.87 256.911C1238.8 241.486 1179.81 220.869 1137.9 236.354C1101.53 252.996 1095.7 295.921 1135.68 312.533C1208.26 342.732 1268.72 304.405 1268.72 304.405C1279.71 306.985 1302.87 352.224 1283.29 382.334C1283.29 382.334 1250.79 374.888 1219.77 372.782C1181.93 370.171 1114.09 376.876 1090.63 412.236C1078.63 430.331 1086.11 450.504 1104.7 460.946C1154.24 488.801 1243.79 457 1286.76 427.899C1290.17 425.615 1295.1 430.183 1298.58 433.268" fill="url(#paint7_linear_9_102)"/>
<path d="M1143.14 265.281C1142.93 286.363 1211.27 283.403 1240.97 268.15C1226.19 252.776 1143.48 232.479 1143.14 265.281ZM1253.63 399.899C1248.2 398.449 1240.27 396.939 1237.52 396.516C1231.91 395.61 1226.25 395.006 1220.59 394.613C1208.8 393.828 1195.45 393.073 1183.7 394.13C1171.59 395.187 1162.77 396.184 1150.94 398.811C1143.21 400.533 1131.67 405.184 1128.76 413.309C1126.67 419.169 1129.73 425.784 1135.7 428.14C1140.72 430.133 1148.85 431.643 1155.86 431.099C1194.49 428.2 1222.97 415.847 1253.63 399.899ZM1328.58 522.013C1339.9 484.379 1329.06 449.282 1298.2 421.978C1294.73 418.897 1289.79 414.306 1286.38 416.602C1243.42 445.718 1153.87 477.523 1104.33 449.645C1085.74 439.194 1078.25 419.048 1090.26 400.926C1113.72 365.587 1181.55 358.882 1219.4 361.48C1250.42 363.594 1282.92 371.054 1282.92 371.054C1302.49 340.911 1279.33 295.696 1268.35 293.098C1268.35 293.098 1207.89 331.427 1135.3 301.253C1095.33 284.641 1101.15 241.722 1137.52 225.049C1179.43 209.585 1238.43 230.184 1277.49 245.618C1294.49 231.785 1307.29 209.947 1309.67 184.334C1312.14 157.574 1300.78 127.159 1277.4 110.758C1259.22 98.0122 1238.98 89.3737 1217.67 83.6954C1194.57 77.564 1176.91 72.5202 1153.15 69.379C1099.47 62.2811 1028.52 62.4623 988.188 106.228C965.034 131.357 949.886 166.091 943.253 198.138C935.266 236.708 928.214 267.093 927.465 306.539C927.308 314.452 927.32 322.456 927.506 330.46C928.998 395.278 941.868 463.327 973.619 520.261C994.762 558.167 1024.35 590.908 1069.93 597.824C1104.29 603.05 1133.81 603.563 1158.2 600.331C1186.94 596.495 1207.88 593.475 1236.2 587.313C1273 579.34 1317.29 559.556 1328.58 522.013V522.013ZM1317.63 391.593C1397.98 459.612 1357.79 588.552 1250.62 611.567C1221.11 617.91 1201.42 621.504 1173.35 624.404C1143.97 627.454 1109.06 629.991 1078.76 626.699C1068.02 625.551 1053.1 622.924 1043.01 619.209C1014.73 608.758 989.476 590.727 969.886 568.648C943.165 538.565 926.505 501.263 916.258 463.266C904.9 421.162 901.012 377.307 901.805 333.904C902.592 290.259 908.171 246.615 918.427 204.088C927.251 167.511 936.73 136.673 957.655 104.808C1043.34 -25.5818 1462.9 42.2258 1306.12 267.969C1301.65 274.402 1300.22 277.876 1306.46 284.732C1327.61 307.959 1339.42 341.273 1317.63 391.593" fill="#BDBDBD"/>
<path d="M1209.7 373.442C1212.45 373.884 1220.38 375.376 1225.81 376.813C1195.15 392.759 1166.67 405.14 1128.04 408.041C1121.03 408.566 1112.89 407.074 1107.88 405.085C1101.91 402.708 1098.85 396.075 1100.94 390.244C1103.85 382.12 1115.39 377.449 1123.12 375.736C1134.95 373.11 1143.77 372.115 1155.87 371.065C1167.63 370.015 1180.97 370.734 1192.76 371.535C1198.43 371.922 1204.09 372.558 1209.7 373.442Z" fill="white"/>
<path d="M1261.65 249.071C1231.95 264.297 1163.61 267.273 1163.82 246.18C1164.16 213.381 1246.87 233.673 1261.65 249.071Z" fill="white"/>
<defs>
<linearGradient id="paint0_linear_9_102" x1="2013.25" y1="611.403" x2="2013.25" y2="33.8521" gradientUnits="userSpaceOnUse">
<stop stop-color="white"/>
<stop offset="1" stop-color="white" stop-opacity="0"/>
</linearGradient>
<linearGradient id="paint1_linear_9_102" x1="255.167" y1="606.632" x2="255.167" y2="29.0812" gradientUnits="userSpaceOnUse">
<stop stop-color="white"/>
<stop offset="1" stop-color="white" stop-opacity="0"/>
</linearGradient>
<linearGradient id="paint2_linear_9_102" x1="257.99" y1="217.702" x2="257.99" y2="181.302" gradientUnits="userSpaceOnUse">
<stop stop-color="white"/>
<stop offset="1" stop-color="white" stop-opacity="0"/>
</linearGradient>
<linearGradient id="paint3_linear_9_102" x1="137.498" y1="398.381" x2="137.498" y2="313.649" gradientUnits="userSpaceOnUse">
<stop stop-color="white"/>
<stop offset="1" stop-color="white" stop-opacity="0"/>
</linearGradient>
<linearGradient id="paint4_linear_9_102" x1="698.069" y1="622.716" x2="698.069" y2="74.5174" gradientUnits="userSpaceOnUse">
<stop stop-color="white"/>
<stop offset="1" stop-color="white" stop-opacity="0"/>
</linearGradient>
<linearGradient id="paint5_linear_9_102" x1="1501.53" y1="622.121" x2="1501.53" y2="51.5824" gradientUnits="userSpaceOnUse">
<stop stop-color="white"/>
<stop offset="1" stop-color="white" stop-opacity="0"/>
</linearGradient>
<linearGradient id="paint6_linear_9_102" x1="1526.61" y1="364.669" x2="1526.61" y2="302.449" gradientUnits="userSpaceOnUse">
<stop stop-color="white"/>
<stop offset="1" stop-color="white" stop-opacity="0"/>
</linearGradient>
<linearGradient id="paint7_linear_9_102" x1="1130.53" y1="613.638" x2="1130.53" y2="77.2229" gradientUnits="userSpaceOnUse">
<stop stop-color="white"/>
<stop offset="1" stop-color="white" stop-opacity="0"/>
</linearGradient>
</defs>
</svg>
